<?xml version="1.0" encoding="UTF-8" standalone="no"?><!DOCTYPE svg PUBLIC "-//W3C//DTD SVG 1.1//EN" "http://www.w3.org/Graphics/SVG/1.1/DTD/svg11.dtd"><svg width="100%" height="100%" viewBox="0 0 700 700" version="1.1" xmlns="http://www.w3.org/2000/svg" xmlns:xlink="http://www.w3.org/1999/xlink" xml:space="preserve" xmlns:serif="http://www.serif.com/" style="fill-rule:evenodd;clip-rule:evenodd;stroke-linecap:round;stroke-linejoin:round;stroke-miterlimit:1.5;"><path d="M208.223,73.155l-153.914,148.832l203.288,404.858l125.935,-370.46l-175.309,-183.23Z" style="fill:#b91c1c;"/><path d="M383.532,255.911l-129.571,379.74l9.457,-2.4l385.977,-430.71l-112.838,-138.844l-197.466,131.339l44.441,60.875Z" style="fill:#7f1d1d;"/><path d="M37.066,222.521l210.656,420.398c1.236,2.473 3.74,4.182 6.639,4.549c0.388,0.045 0.771,0.07 1.155,0.07c2.504,-0 4.9,-1.015 6.546,-2.814l399.634,-436.944c2.65,-2.894 2.747,-7.126 0.232,-10.121l-119.278,-142.123c-2.855,-3.412 -8.106,-4.075 -11.857,-1.527l-196.245,133.966l-118.911,-132.641c-1.565,-1.744 -3.854,-2.79 -6.293,-2.87c-2.429,-0.005 -4.803,0.814 -6.498,2.447l-164.192,158.681c-2.466,2.382 -3.103,5.935 -1.597,8.935l0.009,-0.006Zm171.515,-150.086l165.795,184.938c3.044,3.397 8.462,3.849 12.105,1.015c3.648,-2.834 4.134,-7.88 1.09,-11.272l-41.983,-46.837l188.647,-128.782l109.816,130.853l-386.412,422.483l-202.504,-404.112l153.446,-148.286Z" style="fill:#475569;fill-rule:nonzero;"/><path d="M46.515,376.635l84.004,-0c-0,-0 26.423,-12.12 35.594,-12.12c9.649,-0 22.299,12.12 22.299,12.12l51.562,-0l13.562,18.087l45.211,-130.715l22.563,147.351l29.315,-34.723l42.015,-0c-0,-0 28.422,-32.238 38.332,-32.238c9.526,-0 21.128,32.238 21.128,32.238l132.414,-0" style="fill:none;stroke:#fff;stroke-opacity:0.9;stroke-width:20px;"/></svg>