<?xml version="1.0" standalone="no"?>
<!DOCTYPE svg PUBLIC "-//W3C//DTD SVG 20010904//EN"
 "http://www.w3.org/TR/2001/REC-SVG-20010904/DTD/svg10.dtd">
<svg version="1.0" xmlns="http://www.w3.org/2000/svg"
 width="700.000000pt" height="700.000000pt" viewBox="0 0 700.000000 700.000000"
 preserveAspectRatio="xMidYMid meet">
<metadata>
Created by potrace 1.14, written by Peter Selinger 2001-2017
</metadata>
<g transform="translate(0.000000,700.000000) scale(0.100000,-0.100000)"
fill="#000000" stroke="none">
<path d="M1892 6318 c-87 -84 -464 -449 -839 -811 -411 -397 -684 -668 -687
-682 -5 -19 76 -189 361 -757 l368 -733 88 -3 c83 -3 94 0 185 37 267 108 360
108 512 -4 l48 -35 257 0 257 0 30 -30 c17 -17 31 -30 33 -28 2 3 325 935 373
1076 19 58 31 78 56 93 44 27 80 24 117 -9 l31 -27 96 -632 c54 -347 100 -634
103 -638 4 -3 39 33 79 80 40 47 82 92 94 100 16 12 62 15 221 15 l200 0 80
81 c93 95 210 191 268 220 124 64 238 -16 337 -235 l30 -66 285 0 284 0 733
801 c403 440 737 811 741 824 5 15 4 33 -5 48 -15 28 -1172 1409 -1211 1446
-55 50 -23 69 -1086 -657 l-985 -673 -22 23 c-11 13 -277 309 -589 658 -312
349 -576 643 -587 653 -12 10 -36 17 -59 17 -37 0 -48 -9 -197 -152z m247
-100 c58 -64 48 -61 -14 3 -28 28 -45 50 -40 48 6 -2 30 -25 54 -51z m-109 -3
c-24 -25 -46 -45 -49 -45 -3 0 15 20 39 45 24 25 46 45 49 45 3 0 -15 -20 -39
-45z m-250 -238 c0 -1 -24 -25 -52 -52 l-53 -50 50 53 c46 48 55 57 55 49z
m-300 -290 c0 -1 -24 -25 -52 -52 l-53 -50 50 53 c46 48 55 57 55 49z m-300
-290 c0 -1 -26 -27 -57 -57 l-58 -55 55 58 c50 53 60 62 60 54z m-350 -342
c-41 -41 -77 -75 -79 -75 -3 0 28 34 69 75 41 41 77 75 79 75 3 0 -28 -34 -69
-75z m-230 -218 c0 -2 -12 -14 -27 -28 l-28 -24 24 28 c23 25 31 32 31 24z"/>
<path d="M2795 3498 c-184 -536 -175 -515 -221 -534 -59 -25 -93 -7 -161 86
l-58 79 -252 3 c-244 3 -252 4 -280 26 -15 12 -52 39 -82 58 -47 32 -59 36
-100 32 -25 -3 -110 -30 -189 -61 -112 -45 -155 -57 -198 -57 -30 0 -54 -3
-54 -7 0 -19 1285 -2561 1302 -2576 36 -31 84 -22 133 26 24 23 560 607 1190
1297 l1147 1255 -239 5 c-265 6 -284 10 -305 72 -23 66 -108 229 -123 234 -22
9 -74 -34 -207 -168 -65 -65 -129 -123 -143 -128 -15 -6 -113 -10 -218 -11
l-192 0 -120 -145 c-66 -80 -133 -156 -148 -170 -53 -45 -136 -24 -156 39 -5
18 -44 259 -86 537 -42 278 -79 513 -83 523 -5 13 -54 -118 -157 -415z"/>
</g>
</svg>
